<?xml version="1.0" encoding="UTF-8" standalone="no"?>
<!DOCTYPE svg PUBLIC "-//W3C//DTD SVG 1.1//EN"
 "http://www.w3.org/Graphics/SVG/1.1/DTD/svg11.dtd">
<!-- Generated by graphviz version 2.42.4 (0)
 -->
<!-- Title: DurationTestsOperatorDisk Pages: 1 -->
<svg width="1152pt" height="204pt"
 viewBox="0.00 0.00 1152.00 204.44" xmlns="http://www.w3.org/2000/svg" xmlns:xlink="http://www.w3.org/1999/xlink">
<g id="graph0" class="graph" transform="scale(0.52 0.52) rotate(0) translate(25.2 369.2)">
<title>DurationTestsOperatorDisk</title>
<polygon fill="white" stroke="transparent" points="-25.2,25.2 -25.2,-369.2 2197.2,-369.2 2197.2,25.2 -25.2,25.2"/>
<!-- start_return -->
<g id="node1" class="node">
<title>start_return</title>
<ellipse fill="black" stroke="black" cx="968" cy="-10" rx="10" ry="10"/>
<text text-anchor="middle" x="922.5" y="-23" font-family="Helvetica,sans-Serif" font-size="10.00">Return to start</text>
</g>
<!-- op_overview -->
<g id="node2" class="node">
<title>op_overview</title>
<path fill="#85c1e9" stroke="black" d="M1146.83,-344C1146.83,-344 1069.17,-344 1069.17,-344 1063.33,-344 1057.5,-338.17 1057.5,-332.33 1057.5,-332.33 1057.5,-320.67 1057.5,-320.67 1057.5,-314.83 1063.33,-309 1069.17,-309 1069.17,-309 1146.83,-309 1146.83,-309 1152.67,-309 1158.5,-314.83 1158.5,-320.67 1158.5,-320.67 1158.5,-332.33 1158.5,-332.33 1158.5,-338.17 1152.67,-344 1146.83,-344"/>
<text text-anchor="middle" x="1108" y="-329.5" font-family="Helvetica,sans-Serif" font-size="10.00">op_overview</text>
<text text-anchor="middle" x="1108" y="-318.5" font-family="Helvetica,sans-Serif" font-size="10.00">(hub)</text>
</g>
<!-- op_overview&#45;&gt;start_return -->
<g id="edge37" class="edge">
<title>op_overview&#45;&gt;start_return</title>
<path fill="none" stroke="#333333" stroke-dasharray="5,2" d="M1057.23,-324.79C890.59,-322.28 361.39,-312.76 192,-291 105.31,-279.87 0,-335.9 0,-248.5 0,-248.5 0,-248.5 0,-80.5 0,-31.23 808.25,-13.97 947.65,-11.36"/>
<polygon fill="#333333" stroke="#333333" points="947.85,-14.86 957.78,-11.18 947.72,-7.86 947.85,-14.86"/>
<text text-anchor="middle" x="36" y="-158.9" font-family="Helvetica,sans-Serif" font-size="7.00">Return to start 0.05</text>
</g>
<!-- op_disk -->
<g id="node3" class="node">
<title>op_disk</title>
<path fill="#fcf3cf" stroke="black" d="M1037.83,-265C1037.83,-265 960.17,-265 960.17,-265 954.33,-265 948.5,-259.17 948.5,-253.33 948.5,-253.33 948.5,-241.67 948.5,-241.67 948.5,-235.83 954.33,-230 960.17,-230 960.17,-230 1037.83,-230 1037.83,-230 1043.67,-230 1049.5,-235.83 1049.5,-241.67 1049.5,-241.67 1049.5,-253.33 1049.5,-253.33 1049.5,-259.17 1043.67,-265 1037.83,-265"/>
<text text-anchor="middle" x="999" y="-250.5" font-family="Helvetica,sans-Serif" font-size="10.00">op_disk</text>
<text text-anchor="middle" x="999" y="-239.5" font-family="Helvetica,sans-Serif" font-size="10.00">(disk inventory)</text>
</g>
<!-- op_overview&#45;&gt;op_disk -->
<g id="edge1" class="edge">
<title>op_overview&#45;&gt;op_disk</title>
<path fill="none" stroke="#555555" d="M1100.47,-308.83C1095.87,-300.19 1089.28,-290 1081,-283 1074.47,-277.48 1066.93,-272.74 1059.13,-268.69"/>
<polygon fill="#555555" stroke="#555555" points="1060.41,-265.43 1049.88,-264.26 1057.38,-271.74 1060.41,-265.43"/>
<text text-anchor="middle" x="1134.5" y="-285.4" font-family="Helvetica,sans-Serif" font-size="7.00">Open disk inventory 0.28</text>
</g>
<!-- op_eject -->
<g id="node8" class="node">
<title>op_eject</title>
<path fill="#f5b7b1" stroke="black" d="M2036.83,-178C2036.83,-178 1959.17,-178 1959.17,-178 1953.33,-178 1947.5,-172.17 1947.5,-166.33 1947.5,-166.33 1947.5,-154.67 1947.5,-154.67 1947.5,-148.83 1953.33,-143 1959.17,-143 1959.17,-143 2036.83,-143 2036.83,-143 2042.67,-143 2048.5,-148.83 2048.5,-154.67 2048.5,-154.67 2048.5,-166.33 2048.5,-166.33 2048.5,-172.17 2042.67,-178 2036.83,-178"/>
<text text-anchor="middle" x="1998" y="-158" font-family="Helvetica,sans-Serif" font-size="10.00">op_eject</text>
</g>
<!-- op_overview&#45;&gt;op_eject -->
<g id="edge3" class="edge">
<title>op_overview&#45;&gt;op_eject</title>
<path fill="none" stroke="#555555" d="M1158.73,-324.43C1327.4,-320.5 1862.41,-304.98 1928,-265 1957.3,-247.14 1977.12,-211.83 1987.99,-187.45"/>
<polygon fill="#555555" stroke="#555555" points="1991.28,-188.65 1991.97,-178.08 1984.84,-185.91 1991.28,-188.65"/>
<text text-anchor="middle" x="1988.5" y="-245.9" font-family="Helvetica,sans-Serif" font-size="7.00">Eject disk 0.10</text>
</g>
<!-- op_instance -->
<g id="node9" class="node">
<title>op_instance</title>
<path fill="#aed6f1" stroke="black" d="M462.83,-99C462.83,-99 385.17,-99 385.17,-99 379.33,-99 373.5,-93.17 373.5,-87.33 373.5,-87.33 373.5,-75.67 373.5,-75.67 373.5,-69.83 379.33,-64 385.17,-64 385.17,-64 462.83,-64 462.83,-64 468.67,-64 474.5,-69.83 474.5,-75.67 474.5,-75.67 474.5,-87.33 474.5,-87.33 474.5,-93.17 468.67,-99 462.83,-99"/>
<text text-anchor="middle" x="424" y="-79" font-family="Helvetica,sans-Serif" font-size="10.00">op_instance</text>
</g>
<!-- op_overview&#45;&gt;op_instance -->
<g id="edge2" class="edge">
<title>op_overview&#45;&gt;op_instance</title>
<path fill="none" stroke="#555555" d="M1057.37,-325.2C880.88,-323.91 299.24,-317.65 220,-291 161.92,-271.46 135.32,-266.34 107,-212 50.26,-103.1 233.83,-123.12 363.43,-99.53"/>
<polygon fill="#555555" stroke="#555555" points="364.29,-102.92 373.45,-97.59 362.96,-96.05 364.29,-102.92"/>
<text text-anchor="middle" x="158" y="-202.4" font-family="Helvetica,sans-Serif" font-size="7.00">Open instance controls 0.18</text>
</g>
<!-- op_disk&#45;&gt;start_return -->
<g id="edge38" class="edge">
<title>op_disk&#45;&gt;start_return</title>
<path fill="none" stroke="#333333" stroke-dasharray="5,2" d="M953.27,-229.93C945.98,-225.26 939.4,-219.37 935,-212 927.17,-198.89 936.69,-192.91 940,-178 951.81,-124.84 961.19,-61.17 965.47,-30.03"/>
<polygon fill="#333333" stroke="#333333" points="968.94,-30.5 966.81,-20.12 962,-29.56 968.94,-30.5"/>
<text text-anchor="middle" x="988" y="-119.4" font-family="Helvetica,sans-Serif" font-size="7.00">Return to start 0.05</text>
</g>
<!-- op_disk&#45;&gt;op_overview -->
<g id="edge14" class="edge">
<title>op_disk&#45;&gt;op_overview</title>
<path fill="none" stroke="#555555" d="M992.44,-265.27C990.28,-273.74 989.62,-283.73 995,-291 1007.32,-307.64 1027.49,-316.52 1047.41,-321.18"/>
<polygon fill="#555555" stroke="#555555" points="1046.95,-324.66 1057.45,-323.19 1048.33,-317.79 1046.95,-324.66"/>
<text text-anchor="middle" x="1035.5" y="-285.4" font-family="Helvetica,sans-Serif" font-size="7.00">Back to overview 0.10</text>
</g>
<!-- op_install -->
<g id="node4" class="node">
<title>op_install</title>
<path fill="#abebc6" stroke="black" d="M916.83,-178C916.83,-178 839.17,-178 839.17,-178 833.33,-178 827.5,-172.17 827.5,-166.33 827.5,-166.33 827.5,-154.67 827.5,-154.67 827.5,-148.83 833.33,-143 839.17,-143 839.17,-143 916.83,-143 916.83,-143 922.67,-143 928.5,-148.83 928.5,-154.67 928.5,-154.67 928.5,-166.33 928.5,-166.33 928.5,-172.17 922.67,-178 916.83,-178"/>
<text text-anchor="middle" x="878" y="-158" font-family="Helvetica,sans-Serif" font-size="10.00">op_install</text>
</g>
<!-- op_disk&#45;&gt;op_install -->
<g id="edge4" class="edge">
<title>op_disk&#45;&gt;op_install</title>
<path fill="none" stroke="#555555" d="M948.46,-247.24C881.37,-247.01 768.27,-242.03 742,-212 737.32,-206.65 737.63,-201.61 742,-196 743.27,-194.36 781.68,-184.7 817.36,-176.02"/>
<polygon fill="#555555" stroke="#555555" points="818.42,-179.36 827.31,-173.6 816.77,-172.56 818.42,-179.36"/>
<text text-anchor="middle" x="770.5" y="-202.4" font-family="Helvetica,sans-Serif" font-size="7.00">Install App 0.18</text>
</g>
<!-- op_files -->
<g id="node5" class="node">
<title>op_files</title>
<path fill="#d7bde2" stroke="black" d="M1091.83,-178C1091.83,-178 1014.17,-178 1014.17,-178 1008.33,-178 1002.5,-172.17 1002.5,-166.33 1002.5,-166.33 1002.5,-154.67 1002.5,-154.67 1002.5,-148.83 1008.33,-143 1014.17,-143 1014.17,-143 1091.83,-143 1091.83,-143 1097.67,-143 1103.5,-148.83 1103.5,-154.67 1103.5,-154.67 1103.5,-166.33 1103.5,-166.33 1103.5,-172.17 1097.67,-178 1091.83,-178"/>
<text text-anchor="middle" x="1053" y="-158" font-family="Helvetica,sans-Serif" font-size="10.00">op_files</text>
</g>
<!-- op_disk&#45;&gt;op_files -->
<g id="edge5" class="edge">
<title>op_disk&#45;&gt;op_files</title>
<path fill="none" stroke="#555555" d="M1011.57,-229.9C1015.66,-224.3 1020.14,-217.96 1024,-212 1029.19,-203.98 1034.49,-195.01 1039.13,-186.87"/>
<polygon fill="#555555" stroke="#555555" points="1042.19,-188.57 1044.03,-178.14 1036.08,-185.15 1042.19,-188.57"/>
<text text-anchor="middle" x="1070.5" y="-202.4" font-family="Helvetica,sans-Serif" font-size="7.00">Make Files Disk 0.08</text>
</g>
<!-- op_disk&#45;&gt;op_files -->
<g id="edge6" class="edge">
<title>op_disk&#45;&gt;op_files</title>
<path fill="none" stroke="#555555" d="M1049.55,-244.19C1072.47,-240.3 1097.6,-231.45 1112,-212 1119.75,-201.54 1113.25,-191.78 1102.16,-183.69"/>
<polygon fill="#555555" stroke="#555555" points="1103.73,-180.53 1093.41,-178.1 1099.96,-186.43 1103.73,-180.53"/>
<text text-anchor="middle" x="1149.5" y="-202.4" font-family="Helvetica,sans-Serif" font-size="7.00">Add Files role 0.06</text>
</g>
<!-- op_backup -->
<g id="node6" class="node">
<title>op_backup</title>
<path fill="#d5f5e3" stroke="black" d="M1406.83,-178C1406.83,-178 1329.17,-178 1329.17,-178 1323.33,-178 1317.5,-172.17 1317.5,-166.33 1317.5,-166.33 1317.5,-154.67 1317.5,-154.67 1317.5,-148.83 1323.33,-143 1329.17,-143 1329.17,-143 1406.83,-143 1406.83,-143 1412.67,-143 1418.5,-148.83 1418.5,-154.67 1418.5,-154.67 1418.5,-166.33 1418.5,-166.33 1418.5,-172.17 1412.67,-178 1406.83,-178"/>
<text text-anchor="middle" x="1368" y="-158" font-family="Helvetica,sans-Serif" font-size="10.00">op_backup</text>
</g>
<!-- op_disk&#45;&gt;op_backup -->
<g id="edge7" class="edge">
<title>op_disk&#45;&gt;op_backup</title>
<path fill="none" stroke="#555555" d="M1049.75,-246.31C1160.06,-245.38 1413.96,-240.16 1440,-212 1450.13,-201.05 1442.04,-191.1 1428.15,-182.98"/>
<polygon fill="#555555" stroke="#555555" points="1429.36,-179.67 1418.87,-178.17 1426.14,-185.88 1429.36,-179.67"/>
<text text-anchor="middle" x="1485" y="-202.4" font-family="Helvetica,sans-Serif" font-size="7.00">Make Backup Disk 0.08</text>
</g>
<!-- op_disk&#45;&gt;op_backup -->
<g id="edge8" class="edge">
<title>op_disk&#45;&gt;op_backup</title>
<path fill="none" stroke="#555555" d="M1049.8,-238.54C1088,-232.24 1141.53,-222.74 1188,-212 1199.91,-209.25 1260.12,-192.25 1307.66,-178.73"/>
<polygon fill="#555555" stroke="#555555" points="1308.63,-182.09 1317.29,-175.99 1306.72,-175.36 1308.63,-182.09"/>
<text text-anchor="middle" x="1292.5" y="-202.4" font-family="Helvetica,sans-Serif" font-size="7.00">Restore from Backup 0.06</text>
</g>
<!-- op_erase -->
<g id="node7" class="node">
<title>op_erase</title>
<path fill="#f5b7b1" stroke="black" d="M1685.83,-178C1685.83,-178 1608.17,-178 1608.17,-178 1602.33,-178 1596.5,-172.17 1596.5,-166.33 1596.5,-166.33 1596.5,-154.67 1596.5,-154.67 1596.5,-148.83 1602.33,-143 1608.17,-143 1608.17,-143 1685.83,-143 1685.83,-143 1691.67,-143 1697.5,-148.83 1697.5,-154.67 1697.5,-154.67 1697.5,-166.33 1697.5,-166.33 1697.5,-172.17 1691.67,-178 1685.83,-178"/>
<text text-anchor="middle" x="1647" y="-158" font-family="Helvetica,sans-Serif" font-size="10.00">op_erase</text>
</g>
<!-- op_disk&#45;&gt;op_erase -->
<g id="edge12" class="edge">
<title>op_disk&#45;&gt;op_erase</title>
<path fill="none" stroke="#555555" d="M1049.6,-245.44C1164.19,-242.68 1440.6,-233.9 1531,-212 1557.71,-205.53 1586.02,-193.32 1607.99,-182.53"/>
<polygon fill="#555555" stroke="#555555" points="1609.62,-185.62 1616.99,-178.01 1606.48,-179.37 1609.62,-185.62"/>
<text text-anchor="middle" x="1603.5" y="-202.4" font-family="Helvetica,sans-Serif" font-size="7.00">Erase disk 0.08</text>
</g>
<!-- op_disk&#45;&gt;op_eject -->
<g id="edge13" class="edge">
<title>op_disk&#45;&gt;op_eject</title>
<path fill="none" stroke="#555555" d="M1049.89,-246.37C1167.99,-245.55 1469.74,-240.59 1720,-212 1795.36,-203.39 1881.11,-186.76 1937.2,-174.93"/>
<polygon fill="#555555" stroke="#555555" points="1938.26,-178.29 1947.32,-172.79 1936.81,-171.44 1938.26,-178.29"/>
<text text-anchor="middle" x="1853.5" y="-202.4" font-family="Helvetica,sans-Serif" font-size="7.00">Eject disk 0.08</text>
</g>
<!-- op_disk&#45;&gt;op_instance -->
<g id="edge9" class="edge">
<title>op_disk&#45;&gt;op_instance</title>
<path fill="none" stroke="#555555" d="M948.06,-236.07C936.25,-233.87 923.71,-231.7 912,-230 833.31,-218.58 806.31,-245.08 734,-212 693.4,-193.43 697.27,-169.03 661,-143 640.97,-128.62 635.29,-125.1 612,-117 570.74,-102.65 522.21,-93.94 484.79,-88.86"/>
<polygon fill="#555555" stroke="#555555" points="484.92,-85.35 474.55,-87.52 484.01,-92.29 484.92,-85.35"/>
<text text-anchor="middle" x="746" y="-158.9" font-family="Helvetica,sans-Serif" font-size="7.00">Open instance controls 0.18</text>
</g>
<!-- op_copy_move -->
<g id="node10" class="node">
<title>op_copy_move</title>
<path fill="#f9e79f" stroke="black" d="M425.83,-178C425.83,-178 348.17,-178 348.17,-178 342.33,-178 336.5,-172.17 336.5,-166.33 336.5,-166.33 336.5,-154.67 336.5,-154.67 336.5,-148.83 342.33,-143 348.17,-143 348.17,-143 425.83,-143 425.83,-143 431.67,-143 437.5,-148.83 437.5,-154.67 437.5,-154.67 437.5,-166.33 437.5,-166.33 437.5,-172.17 431.67,-178 425.83,-178"/>
<text text-anchor="middle" x="387" y="-158" font-family="Helvetica,sans-Serif" font-size="10.00">op_copy_move</text>
</g>
<!-- op_disk&#45;&gt;op_copy_move -->
<g id="edge10" class="edge">
<title>op_disk&#45;&gt;op_copy_move</title>
<path fill="none" stroke="#555555" d="M948.43,-243C899.87,-239.65 824.42,-234.45 759,-230 699.67,-225.96 548.79,-229.64 492,-212 478.68,-207.86 477.4,-202.39 465,-196 455.92,-191.32 446.06,-186.66 436.52,-182.34"/>
<polygon fill="#555555" stroke="#555555" points="437.67,-179.02 427.11,-178.15 434.82,-185.42 437.67,-179.02"/>
<text text-anchor="middle" x="518.5" y="-202.4" font-family="Helvetica,sans-Serif" font-size="7.00">Copy app 0.05</text>
</g>
<!-- op_disk&#45;&gt;op_copy_move -->
<g id="edge11" class="edge">
<title>op_disk&#45;&gt;op_copy_move</title>
<path fill="none" stroke="#555555" d="M948.48,-243.02C839.49,-235.43 590.63,-217.61 573,-212 559.71,-207.77 558.98,-201.1 546,-196 514.58,-183.66 477.86,-175.32 447.62,-169.94"/>
<polygon fill="#555555" stroke="#555555" points="448.08,-166.47 437.63,-168.23 446.89,-173.37 448.08,-166.47"/>
<text text-anchor="middle" x="600" y="-202.4" font-family="Helvetica,sans-Serif" font-size="7.00">Move app 0.05</text>
</g>
<!-- op_install&#45;&gt;start_return -->
<g id="edge41" class="edge">
<title>op_install&#45;&gt;start_return</title>
<path fill="none" stroke="#333333" stroke-dasharray="5,2" d="M873.5,-142.68C869.11,-122.53 864.94,-88.43 879,-64 894.04,-37.86 927.56,-23.23 948.9,-16.24"/>
<polygon fill="#333333" stroke="#333333" points="949.96,-19.58 958.52,-13.33 947.94,-12.87 949.96,-19.58"/>
<text text-anchor="middle" x="915" y="-79.9" font-family="Helvetica,sans-Serif" font-size="7.00">Return to start 0.05</text>
</g>
<!-- op_install&#45;&gt;op_overview -->
<g id="edge25" class="edge">
<title>op_install&#45;&gt;op_overview</title>
<path fill="none" stroke="#555555" d="M827.25,-173.63C785.81,-183.55 734.05,-195.94 734,-196 729.6,-201.58 730.1,-206.05 734,-212 768.64,-264.81 950.67,-300.84 1047.42,-316.56"/>
<polygon fill="#555555" stroke="#555555" points="1046.93,-320.03 1057.36,-318.15 1048.04,-313.11 1046.93,-320.03"/>
<text text-anchor="middle" x="866.5" y="-245.9" font-family="Helvetica,sans-Serif" font-size="7.00">Back to overview 0.15</text>
</g>
<!-- op_install&#45;&gt;op_disk -->
<g id="edge24" class="edge">
<title>op_install&#45;&gt;op_disk</title>
<path fill="none" stroke="#555555" d="M843.85,-178.17C829.06,-187.63 817.13,-199.95 827,-212 841.01,-229.1 894.46,-237.9 938.1,-242.32"/>
<polygon fill="#555555" stroke="#555555" points="937.81,-245.8 948.09,-243.27 938.47,-238.84 937.81,-245.8"/>
<text text-anchor="middle" x="858.5" y="-202.4" font-family="Helvetica,sans-Serif" font-size="7.00">Stay on disk 0.30</text>
</g>
<!-- op_install&#45;&gt;op_instance -->
<g id="edge23" class="edge">
<title>op_install&#45;&gt;op_instance</title>
<path fill="none" stroke="#555555" d="M827.24,-143.92C796.23,-134.91 755.63,-124 719,-117 638.68,-101.65 544.68,-92.08 484.76,-87.02"/>
<polygon fill="#555555" stroke="#555555" points="484.97,-83.52 474.71,-86.19 484.39,-90.5 484.97,-83.52"/>
<text text-anchor="middle" x="795.5" y="-119.4" font-family="Helvetica,sans-Serif" font-size="7.00">Start after install 0.55</text>
</g>
<!-- op_files&#45;&gt;start_return -->
<g id="edge43" class="edge">
<title>op_files&#45;&gt;start_return</title>
<path fill="none" stroke="#333333" stroke-dasharray="5,2" d="M1047.58,-142.59C1044.8,-134.65 1041.13,-125.16 1037,-117 1019.88,-83.17 994.47,-46.76 979.73,-26.63"/>
<polygon fill="#333333" stroke="#333333" points="982.38,-24.32 973.61,-18.37 976.75,-28.49 982.38,-24.32"/>
<text text-anchor="middle" x="1063" y="-79.9" font-family="Helvetica,sans-Serif" font-size="7.00">Return to start 0.05</text>
</g>
<!-- op_files&#45;&gt;op_overview -->
<g id="edge20" class="edge">
<title>op_files&#45;&gt;op_overview</title>
<path fill="none" stroke="#555555" d="M1103.93,-164.95C1226.73,-173.3 1529.19,-194.06 1531,-196 1637.16,-310.1 1309.24,-324.68 1168.7,-325.82"/>
<polygon fill="#555555" stroke="#555555" points="1168.49,-322.32 1158.51,-325.88 1168.53,-329.32 1168.49,-322.32"/>
<text text-anchor="middle" x="1591.5" y="-245.9" font-family="Helvetica,sans-Serif" font-size="7.00">Back to overview 0.20</text>
</g>
<!-- op_files&#45;&gt;op_disk -->
<g id="edge19" class="edge">
<title>op_files&#45;&gt;op_disk</title>
<path fill="none" stroke="#555555" d="M1002.4,-174.45C975.37,-181.87 946.87,-190.74 943,-196 935.45,-206.27 941.75,-216.04 952.45,-224.19"/>
<polygon fill="#555555" stroke="#555555" points="950.62,-227.18 960.88,-229.83 954.52,-221.36 950.62,-227.18"/>
<text text-anchor="middle" x="981" y="-202.4" font-family="Helvetica,sans-Serif" font-size="7.00">Files role added 0.80</text>
</g>
<!-- op_backup&#45;&gt;start_return -->
<g id="edge44" class="edge">
<title>op_backup&#45;&gt;start_return</title>
<path fill="none" stroke="#333333" stroke-dasharray="5,2" d="M1323.28,-142.9C1236.15,-110.55 1046.92,-40.3 986.76,-17.96"/>
<polygon fill="#333333" stroke="#333333" points="987.67,-14.57 977.08,-14.37 985.24,-21.13 987.67,-14.57"/>
<text text-anchor="middle" x="1238" y="-79.9" font-family="Helvetica,sans-Serif" font-size="7.00">Return to start 0.05</text>
</g>
<!-- op_backup&#45;&gt;op_overview -->
<g id="edge22" class="edge">
<title>op_backup&#45;&gt;op_overview</title>
<path fill="none" stroke="#555555" d="M1418.69,-165.59C1514.92,-173.47 1714.99,-190.48 1720,-196 1724.78,-201.27 1723.42,-205.76 1720,-212 1667.26,-308.25 1312.92,-323.22 1168.79,-325.29"/>
<polygon fill="#555555" stroke="#555555" points="1168.74,-321.79 1158.78,-325.42 1168.83,-328.79 1168.74,-321.79"/>
<text text-anchor="middle" x="1744.5" y="-245.9" font-family="Helvetica,sans-Serif" font-size="7.00">Back to overview 0.25</text>
</g>
<!-- op_backup&#45;&gt;op_disk -->
<g id="edge21" class="edge">
<title>op_backup&#45;&gt;op_disk</title>
<path fill="none" stroke="#555555" d="M1363.52,-178.44C1359.55,-189.88 1352.56,-204.25 1341,-212 1296.39,-241.88 1145.53,-246.8 1059.82,-247.09"/>
<polygon fill="#555555" stroke="#555555" points="1059.7,-243.59 1049.7,-247.1 1059.71,-250.59 1059.7,-243.59"/>
<text text-anchor="middle" x="1391.5" y="-206.4" font-family="Helvetica,sans-Serif" font-size="7.00">Backup configured /</text>
<text text-anchor="middle" x="1391.5" y="-198.4" font-family="Helvetica,sans-Serif" font-size="7.00">restored 0.75</text>
</g>
<!-- op_erase&#45;&gt;start_return -->
<g id="edge45" class="edge">
<title>op_erase&#45;&gt;start_return</title>
<path fill="none" stroke="#333333" stroke-dasharray="5,2" d="M1596.43,-144.92C1525.79,-124.88 1393.39,-88.54 1279,-64 1169.7,-40.55 1037,-20.8 987.69,-13.76"/>
<polygon fill="#333333" stroke="#333333" points="988.12,-10.29 977.73,-12.35 987.14,-17.22 988.12,-10.29"/>
<text text-anchor="middle" x="1461" y="-79.9" font-family="Helvetica,sans-Serif" font-size="7.00">Return to start 0.05</text>
</g>
<!-- op_erase&#45;&gt;op_overview -->
<g id="edge18" class="edge">
<title>op_erase&#45;&gt;op_overview</title>
<path fill="none" stroke="#555555" d="M1697.74,-161.99C1756.56,-163.76 1848.26,-170.64 1870,-196 1874.63,-201.4 1873.36,-205.74 1870,-212 1849.82,-249.57 1829.97,-250.11 1790,-265 1676.87,-307.14 1313.9,-320.5 1168.79,-324.22"/>
<polygon fill="#555555" stroke="#555555" points="1168.63,-320.72 1158.72,-324.47 1168.8,-327.72 1168.63,-320.72"/>
<text text-anchor="middle" x="1890" y="-245.9" font-family="Helvetica,sans-Serif" font-size="7.00">Cancel erase 0.30</text>
</g>
<!-- op_erase&#45;&gt;op_disk -->
<g id="edge17" class="edge">
<title>op_erase&#45;&gt;op_disk</title>
<path fill="none" stroke="#555555" d="M1648.16,-178.19C1647.96,-189.52 1645.57,-203.86 1636,-212 1614.28,-230.49 1214.98,-241.56 1059.88,-245.18"/>
<polygon fill="#555555" stroke="#555555" points="1059.5,-241.69 1049.59,-245.42 1059.67,-248.69 1059.5,-241.69"/>
<text text-anchor="middle" x="1680" y="-202.4" font-family="Helvetica,sans-Serif" font-size="7.00">Confirm erase 0.70</text>
</g>
<!-- op_eject&#45;&gt;start_return -->
<g id="edge39" class="edge">
<title>op_eject&#45;&gt;start_return</title>
<path fill="none" stroke="#333333" stroke-dasharray="5,2" d="M1947.21,-148.13C1857.69,-128.44 1665.79,-87.85 1502,-64 1302.45,-34.95 1058.59,-17.13 988.01,-12.32"/>
<polygon fill="#333333" stroke="#333333" points="988.08,-8.82 977.87,-11.64 987.61,-15.81 988.08,-8.82"/>
<text text-anchor="middle" x="1743" y="-79.9" font-family="Helvetica,sans-Serif" font-size="7.00">Return to start 0.05</text>
</g>
<!-- op_eject&#45;&gt;op_overview -->
<g id="edge15" class="edge">
<title>op_eject&#45;&gt;op_overview</title>
<path fill="none" stroke="#555555" d="M2009.29,-178.33C2022.79,-200.77 2041.11,-240.51 2020,-265 1992.16,-297.31 1367.75,-318.02 1168.51,-323.83"/>
<polygon fill="#555555" stroke="#555555" points="1168.4,-320.33 1158.51,-324.12 1168.61,-327.33 1168.4,-320.33"/>
<text text-anchor="middle" x="2062.5" y="-245.9" font-family="Helvetica,sans-Serif" font-size="7.00">Confirm eject 0.70</text>
</g>
<!-- op_eject&#45;&gt;op_overview -->
<g id="edge16" class="edge">
<title>op_eject&#45;&gt;op_overview</title>
<path fill="none" stroke="#555555" d="M2035.34,-178.03C2075.21,-197.91 2129.09,-232.66 2101,-265 2070.32,-300.32 1379.96,-319.2 1168.8,-324.16"/>
<polygon fill="#555555" stroke="#555555" points="1168.44,-320.67 1158.53,-324.4 1168.6,-327.66 1168.44,-320.67"/>
<text text-anchor="middle" x="2140" y="-245.9" font-family="Helvetica,sans-Serif" font-size="7.00">Cancel eject 0.30</text>
</g>
<!-- op_instance&#45;&gt;start_return -->
<g id="edge40" class="edge">
<title>op_instance&#45;&gt;start_return</title>
<path fill="none" stroke="#333333" stroke-dasharray="5,2" d="M474.69,-74.02C590.35,-59.25 869.73,-23.56 947.57,-13.61"/>
<polygon fill="#333333" stroke="#333333" points="948.43,-17.03 957.91,-12.29 947.55,-10.08 948.43,-17.03"/>
<text text-anchor="middle" x="781" y="-40.4" font-family="Helvetica,sans-Serif" font-size="7.00">Return to start 0.05</text>
</g>
<!-- op_instance&#45;&gt;op_overview -->
<g id="edge33" class="edge">
<title>op_instance&#45;&gt;op_overview</title>
<path fill="none" stroke="#555555" d="M373.21,-97.38C343.42,-106.18 311.33,-115.85 310,-117 256.87,-162.97 253.65,-180.83 273,-212 300.98,-257.09 329.6,-248.37 380,-265 503.4,-305.71 895.7,-320.01 1047.35,-324.1"/>
<polygon fill="#555555" stroke="#555555" points="1047.32,-327.6 1057.41,-324.36 1047.51,-320.6 1047.32,-327.6"/>
<text text-anchor="middle" x="313.5" y="-202.4" font-family="Helvetica,sans-Serif" font-size="7.00">Back to overview 0.15</text>
</g>
<!-- op_instance&#45;&gt;op_disk -->
<g id="edge32" class="edge">
<title>op_instance&#45;&gt;op_disk</title>
<path fill="none" stroke="#555555" d="M474.68,-85.8C502.22,-89.8 535.55,-98.45 560,-117 584.9,-135.9 570.57,-158.5 595,-178 650.8,-222.53 841.29,-220.23 912,-230 920.43,-231.16 929.28,-232.6 937.97,-234.13"/>
<polygon fill="#555555" stroke="#555555" points="937.61,-237.62 948.08,-235.96 938.86,-230.73 937.61,-237.62"/>
<text text-anchor="middle" x="625.5" y="-158.9" font-family="Helvetica,sans-Serif" font-size="7.00">Back to disk 0.20</text>
</g>
<!-- op_instance&#45;&gt;op_instance -->
<g id="edge26" class="edge">
<title>op_instance&#45;&gt;op_instance</title>
<path fill="none" stroke="#555555" d="M474.84,-83.26C487.78,-83.14 497.5,-82.56 497.5,-81.5 497.5,-80.74 492.48,-80.22 484.85,-79.95"/>
<polygon fill="#555555" stroke="#555555" points="484.91,-76.45 474.84,-79.74 484.76,-83.45 484.91,-76.45"/>
<text text-anchor="middle" x="532.5" y="-79.9" font-family="Helvetica,sans-Serif" font-size="7.00">Start instance 0.15</text>
</g>
<!-- op_instance&#45;&gt;op_instance -->
<g id="edge27" class="edge">
<title>op_instance&#45;&gt;op_instance</title>
<path fill="none" stroke="#555555" d="M474.5,-84.64C517.24,-85.74 567.5,-84.69 567.5,-81.5 567.5,-78.56 524.79,-77.44 484.63,-78.14"/>
<polygon fill="#555555" stroke="#555555" points="484.43,-74.64 474.5,-78.36 484.58,-81.64 484.43,-74.64"/>
<text text-anchor="middle" x="601.5" y="-79.9" font-family="Helvetica,sans-Serif" font-size="7.00">Stop instance 0.12</text>
</g>
<!-- op_instance&#45;&gt;op_instance -->
<g id="edge28" class="edge">
<title>op_instance&#45;&gt;op_instance</title>
<path fill="none" stroke="#555555" d="M474.62,-85.54C539.69,-88.17 635.5,-86.82 635.5,-81.5 635.5,-76.45 549.17,-74.98 484.75,-77.09"/>
<polygon fill="#555555" stroke="#555555" points="484.48,-73.6 474.62,-77.46 484.74,-80.59 484.48,-73.6"/>
<text text-anchor="middle" x="662" y="-79.9" font-family="Helvetica,sans-Serif" font-size="7.00">Open app 0.10</text>
</g>
<!-- op_instance&#45;&gt;op_instance -->
<g id="edge29" class="edge">
<title>op_instance&#45;&gt;op_instance</title>
<path fill="none" stroke="#555555" d="M474.55,-86.32C555.06,-90.56 688.5,-88.95 688.5,-81.5 688.5,-74.36 565.78,-72.58 484.71,-76.19"/>
<polygon fill="#555555" stroke="#555555" points="484.37,-72.7 474.55,-76.68 484.71,-79.69 484.37,-72.7"/>
<text text-anchor="middle" x="727" y="-79.9" font-family="Helvetica,sans-Serif" font-size="7.00">Backup instance 0.08</text>
</g>
<!-- op_instance&#45;&gt;op_copy_move -->
<g id="edge30" class="edge">
<title>op_instance&#45;&gt;op_copy_move</title>
<path fill="none" stroke="#555555" d="M474.85,-94.14C493.7,-100.97 508.28,-111.04 498,-125 486.13,-141.12 466.79,-149.93 447.55,-154.67"/>
<polygon fill="#555555" stroke="#555555" points="446.6,-151.29 437.54,-156.8 448.05,-158.14 446.6,-151.29"/>
<text text-anchor="middle" x="528.5" y="-119.4" font-family="Helvetica,sans-Serif" font-size="7.00">Copy app 0.10</text>
</g>
<!-- op_instance&#45;&gt;op_copy_move -->
<g id="edge31" class="edge">
<title>op_instance&#45;&gt;op_copy_move</title>
<path fill="none" stroke="#555555" d="M373.43,-96.08C347.93,-103.43 321.62,-112.01 318,-117 310.75,-126.98 316.56,-135.11 327.33,-141.48"/>
<polygon fill="#555555" stroke="#555555" points="325.89,-144.67 336.4,-146.02 329.02,-138.41 325.89,-144.67"/>
<text text-anchor="middle" x="345" y="-119.4" font-family="Helvetica,sans-Serif" font-size="7.00">Move app 0.10</text>
</g>
<!-- op_copy_move&#45;&gt;start_return -->
<g id="edge42" class="edge">
<title>op_copy_move&#45;&gt;start_return</title>
<path fill="none" stroke="#333333" stroke-dasharray="5,2" d="M340.1,-142.92C329.62,-138.05 318.97,-132.08 310,-125 287.6,-107.32 270.63,-84.95 290,-64 335.78,-14.5 839.68,-11.14 947.69,-10.99"/>
<polygon fill="#333333" stroke="#333333" points="947.88,-14.49 957.88,-10.98 947.88,-7.49 947.88,-14.49"/>
<text text-anchor="middle" x="326" y="-79.9" font-family="Helvetica,sans-Serif" font-size="7.00">Return to start 0.05</text>
</g>
<!-- op_copy_move&#45;&gt;op_overview -->
<g id="edge34" class="edge">
<title>op_copy_move&#45;&gt;op_overview</title>
<path fill="none" stroke="#555555" d="M369.63,-178.14C360.81,-188.6 353.56,-201.97 362,-212 449.44,-316.01 885.02,-325.98 1047.11,-326.02"/>
<polygon fill="#555555" stroke="#555555" points="1047.39,-329.52 1057.38,-326.01 1047.38,-322.52 1047.39,-329.52"/>
<text text-anchor="middle" x="496" y="-245.9" font-family="Helvetica,sans-Serif" font-size="7.00">Done redistribute 0.55</text>
</g>
<!-- op_copy_move&#45;&gt;op_disk -->
<g id="edge35" class="edge">
<title>op_copy_move&#45;&gt;op_disk</title>
<path fill="none" stroke="#555555" d="M374.06,-178.42C367.42,-189.27 362.36,-202.95 371,-212 385.9,-227.61 737.46,-228.76 759,-230 820.12,-233.52 889.92,-238.42 938.44,-241.96"/>
<polygon fill="#555555" stroke="#555555" points="938.22,-245.46 948.45,-242.7 938.74,-238.47 938.22,-245.46"/>
<text text-anchor="middle" x="415.5" y="-202.4" font-family="Helvetica,sans-Serif" font-size="7.00">Stay on source disk 0.30</text>
</g>
<!-- op_copy_move&#45;&gt;op_instance -->
<g id="edge36" class="edge">
<title>op_copy_move&#45;&gt;op_instance</title>
<path fill="none" stroke="#555555" d="M388.69,-142.77C389.96,-134.69 392.17,-125.03 396,-117 397.54,-113.77 399.44,-110.58 401.53,-107.51"/>
<polygon fill="#555555" stroke="#555555" points="404.49,-109.39 407.72,-99.3 398.9,-105.18 404.49,-109.39"/>
<text text-anchor="middle" x="444.5" y="-119.4" font-family="Helvetica,sans-Serif" font-size="7.00">Open copied instance 0.15</text>
</g>
</g>
</svg>
