<?xml version="1.0" encoding="UTF-8" standalone="no"?>
<!DOCTYPE svg PUBLIC "-//W3C//DTD SVG 1.1//EN"
 "http://www.w3.org/Graphics/SVG/1.1/DTD/svg11.dtd">
<!-- Generated by graphviz version 2.42.4 (0)
 -->
<!-- Title: DurationTestsUsageFiles Pages: 1 -->
<svg width="1138pt" height="648pt"
 viewBox="0.00 0.00 1137.53 648.00" xmlns="http://www.w3.org/2000/svg" xmlns:xlink="http://www.w3.org/1999/xlink">
<g id="graph0" class="graph" transform="scale(0.5 0.5) rotate(0) translate(25.2 1271.14)">
<title>DurationTestsUsageFiles</title>
<polygon fill="white" stroke="transparent" points="-25.2,25.2 -25.2,-1271.14 2250.45,-1271.14 2250.45,25.2 -25.2,25.2"/>
<g id="clust1" class="cluster">
<title>cluster_console</title>
<path fill="white" stroke="#5dade2" d="M999,-236.68C999,-236.68 1469,-236.68 1469,-236.68 1475,-236.68 1481,-242.68 1481,-248.68 1481,-248.68 1481,-631.06 1481,-631.06 1481,-637.06 1475,-643.06 1469,-643.06 1469,-643.06 999,-643.06 999,-643.06 993,-643.06 987,-637.06 987,-631.06 987,-631.06 987,-248.68 987,-248.68 987,-242.68 993,-236.68 999,-236.68"/>
<text text-anchor="middle" x="1234" y="-630.26" font-family="Helvetica,sans-Serif" font-size="11.00">Console</text>
</g>
<g id="clust2" class="cluster">
<title>cluster_nextcloud</title>
<path fill="white" stroke="#f4d03f" d="M20,-236.68C20,-236.68 589,-236.68 589,-236.68 595,-236.68 601,-242.68 601,-248.68 601,-248.68 601,-1198.21 601,-1198.21 601,-1204.21 595,-1210.21 589,-1210.21 589,-1210.21 20,-1210.21 20,-1210.21 14,-1210.21 8,-1204.21 8,-1198.21 8,-1198.21 8,-248.68 8,-248.68 8,-242.68 14,-236.68 20,-236.68"/>
<text text-anchor="middle" x="304.5" y="-1197.41" font-family="Helvetica,sans-Serif" font-size="11.00">Nextcloud</text>
</g>
<g id="clust3" class="cluster">
<title>cluster_wiki</title>
<path fill="white" stroke="#af7ac5" d="M1872,-803.83C1872,-803.83 2093,-803.83 2093,-803.83 2099,-803.83 2105,-809.83 2105,-815.83 2105,-815.83 2105,-1198.21 2105,-1198.21 2105,-1204.21 2099,-1210.21 2093,-1210.21 2093,-1210.21 1872,-1210.21 1872,-1210.21 1866,-1210.21 1860,-1204.21 1860,-1198.21 1860,-1198.21 1860,-815.83 1860,-815.83 1860,-809.83 1866,-803.83 1872,-803.83"/>
<text text-anchor="middle" x="1982.5" y="-1197.41" font-family="Helvetica,sans-Serif" font-size="11.00">Wikipedia / Kiwix</text>
</g>
<!-- start -->
<g id="node1" class="node">
<title>start</title>
<ellipse fill="#eeeeee" stroke="black" cx="1503" cy="-918" rx="14.5" ry="14.5"/>
<text text-anchor="middle" x="1503" y="-915.8" font-family="Helvetica,sans-Serif" font-size="9.00">start</text>
</g>
<!-- console_teacher -->
<g id="node2" class="node">
<title>console_teacher</title>
<path fill="#d6eaf8" stroke="black" d="M1330.83,-368.5C1330.83,-368.5 1257.17,-368.5 1257.17,-368.5 1251.33,-368.5 1245.5,-362.67 1245.5,-356.83 1245.5,-356.83 1245.5,-345.17 1245.5,-345.17 1245.5,-339.33 1251.33,-333.5 1257.17,-333.5 1257.17,-333.5 1330.83,-333.5 1330.83,-333.5 1336.67,-333.5 1342.5,-339.33 1342.5,-345.17 1342.5,-345.17 1342.5,-356.83 1342.5,-356.83 1342.5,-362.67 1336.67,-368.5 1330.83,-368.5"/>
<text text-anchor="middle" x="1294" y="-354" font-family="Helvetica,sans-Serif" font-size="10.00">console_teacher</text>
<text text-anchor="middle" x="1294" y="-343" font-family="Helvetica,sans-Serif" font-size="10.00">(teacher)</text>
</g>
<!-- start&#45;&gt;console_teacher -->
<g id="edge1" class="edge">
<title>start&#45;&gt;console_teacher</title>
<path fill="none" stroke="#555555" d="M1506.69,-903.89C1515.5,-870.34 1535.57,-778.98 1515,-707 1475.34,-568.23 1364.01,-430.91 1316.23,-376.47"/>
<polygon fill="#555555" stroke="#555555" points="1318.65,-373.92 1309.4,-368.75 1313.41,-378.56 1318.65,-373.92"/>
<text text-anchor="middle" x="1543.5" y="-717.4" font-family="Helvetica,sans-Serif" font-size="7.00">Open Console</text>
<text text-anchor="middle" x="1543.5" y="-709.4" font-family="Helvetica,sans-Serif" font-size="7.00">as teacher</text>
</g>
<!-- console_learner -->
<g id="node3" class="node">
<title>console_learner</title>
<path fill="#85c1e9" stroke="black" d="M1079.83,-368.5C1079.83,-368.5 1006.17,-368.5 1006.17,-368.5 1000.33,-368.5 994.5,-362.67 994.5,-356.83 994.5,-356.83 994.5,-345.17 994.5,-345.17 994.5,-339.33 1000.33,-333.5 1006.17,-333.5 1006.17,-333.5 1079.83,-333.5 1079.83,-333.5 1085.67,-333.5 1091.5,-339.33 1091.5,-345.17 1091.5,-345.17 1091.5,-356.83 1091.5,-356.83 1091.5,-362.67 1085.67,-368.5 1079.83,-368.5"/>
<text text-anchor="middle" x="1043" y="-354" font-family="Helvetica,sans-Serif" font-size="10.00">console_learner</text>
<text text-anchor="middle" x="1043" y="-343" font-family="Helvetica,sans-Serif" font-size="10.00">(student)</text>
</g>
<!-- start&#45;&gt;console_learner -->
<g id="edge2" class="edge">
<title>start&#45;&gt;console_learner</title>
<path fill="none" stroke="#555555" d="M1501.02,-903.43C1495.4,-868.42 1476.92,-773.16 1434,-707 1334.73,-554 1153.67,-424.44 1077.85,-374.26"/>
<polygon fill="#555555" stroke="#555555" points="1079.42,-371.1 1069.14,-368.54 1075.57,-376.95 1079.42,-371.1"/>
<text text-anchor="middle" x="1469.5" y="-717.4" font-family="Helvetica,sans-Serif" font-size="7.00">Open Console</text>
<text text-anchor="middle" x="1469.5" y="-709.4" font-family="Helvetica,sans-Serif" font-size="7.00">as learner</text>
</g>
<!-- console_teacher&#45;&gt;console_teacher -->
<g id="edge5" class="edge">
<title>console_teacher&#45;&gt;console_teacher</title>
<path fill="none" stroke="#555555" d="M1306.29,-368.63C1331.97,-396.48 1367.5,-390.6 1367.5,-351 1367.5,-315.11 1338.32,-306.92 1313.73,-326.43"/>
<polygon fill="#555555" stroke="#555555" points="1311.22,-323.99 1306.29,-333.37 1315.99,-329.11 1311.22,-323.99"/>
<text text-anchor="middle" x="1423.5" y="-349.4" font-family="Helvetica,sans-Serif" font-size="7.00">Stay on teacher overview 0.50</text>
</g>
<!-- nc_browse -->
<g id="node4" class="node">
<title>nc_browse</title>
<path fill="#fcf3cf" stroke="black" d="M490.83,-935.5C490.83,-935.5 417.17,-935.5 417.17,-935.5 411.33,-935.5 405.5,-929.67 405.5,-923.83 405.5,-923.83 405.5,-912.17 405.5,-912.17 405.5,-906.33 411.33,-900.5 417.17,-900.5 417.17,-900.5 490.83,-900.5 490.83,-900.5 496.67,-900.5 502.5,-906.33 502.5,-912.17 502.5,-912.17 502.5,-923.83 502.5,-923.83 502.5,-929.67 496.67,-935.5 490.83,-935.5"/>
<text text-anchor="middle" x="454" y="-915.5" font-family="Helvetica,sans-Serif" font-size="10.00">nc_browse</text>
</g>
<!-- console_teacher&#45;&gt;nc_browse -->
<g id="edge3" class="edge">
<title>console_teacher&#45;&gt;nc_browse</title>
<path fill="none" stroke="#555555" d="M1300.09,-368.82C1319.6,-425.96 1374.34,-615.09 1287,-723 1188.42,-844.81 686.16,-897.63 512.88,-912.43"/>
<polygon fill="#555555" stroke="#555555" points="512.35,-908.96 502.67,-913.28 512.93,-915.93 512.35,-908.96"/>
<text text-anchor="middle" x="1357.5" y="-713.4" font-family="Helvetica,sans-Serif" font-size="7.00">Open Nextcloud as teacher 0.20</text>
</g>
<!-- wiki_browse -->
<g id="node8" class="node">
<title>wiki_browse</title>
<path fill="#e8daef" stroke="black" d="M1952.83,-935.5C1952.83,-935.5 1879.17,-935.5 1879.17,-935.5 1873.33,-935.5 1867.5,-929.67 1867.5,-923.83 1867.5,-923.83 1867.5,-912.17 1867.5,-912.17 1867.5,-906.33 1873.33,-900.5 1879.17,-900.5 1879.17,-900.5 1952.83,-900.5 1952.83,-900.5 1958.67,-900.5 1964.5,-906.33 1964.5,-912.17 1964.5,-912.17 1964.5,-923.83 1964.5,-923.83 1964.5,-929.67 1958.67,-935.5 1952.83,-935.5"/>
<text text-anchor="middle" x="1916" y="-915.5" font-family="Helvetica,sans-Serif" font-size="10.00">wiki_browse</text>
</g>
<!-- console_teacher&#45;&gt;wiki_browse -->
<g id="edge4" class="edge">
<title>console_teacher&#45;&gt;wiki_browse</title>
<path fill="none" stroke="#555555" d="M1342.88,-365.35C1459.21,-399.91 1752.8,-504.08 1887,-707 1924.45,-763.62 1922.99,-847.66 1919.25,-890.22"/>
<polygon fill="#555555" stroke="#555555" points="1915.75,-890.05 1918.24,-900.35 1922.71,-890.74 1915.75,-890.05"/>
<text text-anchor="middle" x="1953.5" y="-713.4" font-family="Helvetica,sans-Serif" font-size="7.00">Open Wikipedia as teacher 0.10</text>
</g>
<!-- console_teacher_ret -->
<g id="node10" class="node">
<title>console_teacher_ret</title>
<ellipse fill="black" stroke="black" cx="1294" cy="-29" rx="6.5" ry="6.5"/>
</g>
<!-- console_teacher&#45;&gt;console_teacher_ret -->
<g id="edge25" class="edge">
<title>console_teacher&#45;&gt;console_teacher_ret</title>
<path fill="none" stroke="#333333" stroke-dasharray="5,2" d="M1294,-333.25C1294,-276.37 1294,-91.5 1294,-42.18"/>
<polygon fill="#333333" stroke="#333333" points="1296.1,-41.92 1294,-35.92 1291.9,-41.92 1296.1,-41.92"/>
<text text-anchor="middle" x="1302" y="-163.4" font-family="Helvetica,sans-Serif" font-size="7.00">0.05</text>
</g>
<!-- console_learner&#45;&gt;console_learner -->
<g id="edge8" class="edge">
<title>console_learner&#45;&gt;console_learner</title>
<path fill="none" stroke="#555555" d="M1055.29,-368.63C1080.97,-396.48 1116.5,-390.6 1116.5,-351 1116.5,-315.11 1087.32,-306.92 1062.73,-326.43"/>
<polygon fill="#555555" stroke="#555555" points="1060.22,-323.99 1055.29,-333.37 1064.99,-329.11 1060.22,-323.99"/>
<text text-anchor="middle" x="1172" y="-349.4" font-family="Helvetica,sans-Serif" font-size="7.00">Stay on learner overview 0.15</text>
</g>
<!-- console_learner&#45;&gt;nc_browse -->
<g id="edge6" class="edge">
<title>console_learner&#45;&gt;nc_browse</title>
<path fill="none" stroke="#555555" d="M1046.19,-368.74C1056.04,-425.65 1080.17,-614.11 992,-723 871.12,-872.28 625.69,-906.73 512.99,-914.65"/>
<polygon fill="#555555" stroke="#555555" points="512.58,-911.17 502.83,-915.32 513.04,-918.15 512.58,-911.17"/>
<text text-anchor="middle" x="1056.5" y="-713.4" font-family="Helvetica,sans-Serif" font-size="7.00">Open Nextcloud as learner 0.25</text>
</g>
<!-- console_learner&#45;&gt;wiki_browse -->
<g id="edge7" class="edge">
<title>console_learner&#45;&gt;wiki_browse</title>
<path fill="none" stroke="#555555" d="M1068.66,-368.6C1193.76,-449.57 1739.58,-802.82 1881.94,-894.96"/>
<polygon fill="#555555" stroke="#555555" points="1880.05,-897.9 1890.35,-900.4 1883.85,-892.02 1880.05,-897.9"/>
<text text-anchor="middle" x="1666" y="-713.4" font-family="Helvetica,sans-Serif" font-size="7.00">Open Wikipedia as learner 0.20</text>
</g>
<!-- console_learner_ret -->
<g id="node9" class="node">
<title>console_learner_ret</title>
<ellipse fill="black" stroke="black" cx="1043" cy="-29" rx="6.5" ry="6.5"/>
</g>
<!-- console_learner&#45;&gt;console_learner_ret -->
<g id="edge24" class="edge">
<title>console_learner&#45;&gt;console_learner_ret</title>
<path fill="none" stroke="#333333" stroke-dasharray="5,2" d="M1043,-333.25C1043,-276.37 1043,-91.5 1043,-42.18"/>
<polygon fill="#333333" stroke="#333333" points="1045.1,-41.92 1043,-35.92 1040.9,-41.92 1045.1,-41.92"/>
<text text-anchor="middle" x="1051" y="-163.4" font-family="Helvetica,sans-Serif" font-size="7.00">0.05</text>
</g>
<!-- nc_browse&#45;&gt;console_teacher -->
<g id="edge14" class="edge">
<title>nc_browse&#45;&gt;console_teacher</title>
<path fill="none" stroke="#555555" d="M502.61,-915.99C622.02,-911.02 933.57,-882.54 1120,-723 1231.08,-627.94 1275.95,-446.42 1289.33,-378.51"/>
<polygon fill="#555555" stroke="#555555" points="1292.78,-379.1 1291.21,-368.62 1285.9,-377.79 1292.78,-379.1"/>
<text text-anchor="middle" x="1197" y="-713.4" font-family="Helvetica,sans-Serif" font-size="7.00">Leave Nextcloud as teacher 0.10</text>
</g>
<!-- nc_browse&#45;&gt;console_learner -->
<g id="edge13" class="edge">
<title>nc_browse&#45;&gt;console_learner</title>
<path fill="none" stroke="#555555" d="M502.7,-901.53C579.24,-875.22 728.96,-815.44 826,-723 936.52,-617.72 1008.97,-443.81 1033.62,-378.17"/>
<polygon fill="#555555" stroke="#555555" points="1036.98,-379.18 1037.17,-368.59 1030.41,-376.75 1036.98,-379.18"/>
<text text-anchor="middle" x="894" y="-713.4" font-family="Helvetica,sans-Serif" font-size="7.00">Leave Nextcloud as learner 0.13</text>
</g>
<!-- nc_browse&#45;&gt;nc_browse -->
<g id="edge12" class="edge">
<title>nc_browse&#45;&gt;nc_browse</title>
<path fill="none" stroke="#555555" d="M465.23,-935.88C490.98,-967.56 527.5,-961.6 527.5,-918 527.5,-878.15 496.99,-869.75 472.08,-892.79"/>
<polygon fill="#555555" stroke="#555555" points="469.5,-890.42 465.23,-900.12 474.62,-895.2 469.5,-890.42"/>
<text text-anchor="middle" x="563.5" y="-916.4" font-family="Helvetica,sans-Serif" font-size="7.00">Browse folders 0.15</text>
</g>
<!-- nc_share -->
<g id="node5" class="node">
<title>nc_share</title>
<path fill="#f9e79f" stroke="black" d="M216.83,-368.5C216.83,-368.5 143.17,-368.5 143.17,-368.5 137.33,-368.5 131.5,-362.67 131.5,-356.83 131.5,-356.83 131.5,-345.17 131.5,-345.17 131.5,-339.33 137.33,-333.5 143.17,-333.5 143.17,-333.5 216.83,-333.5 216.83,-333.5 222.67,-333.5 228.5,-339.33 228.5,-345.17 228.5,-345.17 228.5,-356.83 228.5,-356.83 228.5,-362.67 222.67,-368.5 216.83,-368.5"/>
<text text-anchor="middle" x="180" y="-354" font-family="Helvetica,sans-Serif" font-size="10.00">nc_share</text>
<text text-anchor="middle" x="180" y="-343" font-family="Helvetica,sans-Serif" font-size="10.00">(teacher)</text>
</g>
<!-- nc_browse&#45;&gt;nc_share -->
<g id="edge9" class="edge">
<title>nc_browse&#45;&gt;nc_share</title>
<path fill="none" stroke="#555555" d="M405.35,-910.91C314.76,-896.66 121.98,-851.94 40,-723 -35.64,-604.02 99.35,-437.96 156.37,-376.3"/>
<polygon fill="#555555" stroke="#555555" points="159.26,-378.33 163.55,-368.64 154.16,-373.54 159.26,-378.33"/>
<text text-anchor="middle" x="75" y="-713.4" font-family="Helvetica,sans-Serif" font-size="7.00">Share to class 0.18</text>
</g>
<!-- nc_drop -->
<g id="node6" class="node">
<title>nc_drop</title>
<path fill="#f9e79f" stroke="black" d="M376.83,-368.5C376.83,-368.5 303.17,-368.5 303.17,-368.5 297.33,-368.5 291.5,-362.67 291.5,-356.83 291.5,-356.83 291.5,-345.17 291.5,-345.17 291.5,-339.33 297.33,-333.5 303.17,-333.5 303.17,-333.5 376.83,-333.5 376.83,-333.5 382.67,-333.5 388.5,-339.33 388.5,-345.17 388.5,-345.17 388.5,-356.83 388.5,-356.83 388.5,-362.67 382.67,-368.5 376.83,-368.5"/>
<text text-anchor="middle" x="340" y="-354" font-family="Helvetica,sans-Serif" font-size="10.00">nc_drop</text>
<text text-anchor="middle" x="340" y="-343" font-family="Helvetica,sans-Serif" font-size="10.00">(student)</text>
</g>
<!-- nc_browse&#45;&gt;nc_drop -->
<g id="edge10" class="edge">
<title>nc_browse&#45;&gt;nc_drop</title>
<path fill="none" stroke="#555555" d="M422.4,-900.43C372.02,-871.99 275.28,-808.57 237,-723 181.45,-598.83 279.29,-437.65 321.77,-376.75"/>
<polygon fill="#555555" stroke="#555555" points="324.68,-378.69 327.61,-368.51 318.97,-374.64 324.68,-378.69"/>
<text text-anchor="middle" x="273" y="-713.4" font-family="Helvetica,sans-Serif" font-size="7.00">Open File Drop 0.22</text>
</g>
<!-- nc_collab -->
<g id="node7" class="node">
<title>nc_collab</title>
<path fill="#f9e79f" stroke="black" d="M498.83,-368.5C498.83,-368.5 425.17,-368.5 425.17,-368.5 419.33,-368.5 413.5,-362.67 413.5,-356.83 413.5,-356.83 413.5,-345.17 413.5,-345.17 413.5,-339.33 419.33,-333.5 425.17,-333.5 425.17,-333.5 498.83,-333.5 498.83,-333.5 504.67,-333.5 510.5,-339.33 510.5,-345.17 510.5,-345.17 510.5,-356.83 510.5,-356.83 510.5,-362.67 504.67,-368.5 498.83,-368.5"/>
<text text-anchor="middle" x="462" y="-348.5" font-family="Helvetica,sans-Serif" font-size="10.00">nc_collab</text>
</g>
<!-- nc_browse&#45;&gt;nc_collab -->
<g id="edge11" class="edge">
<title>nc_browse&#45;&gt;nc_collab</title>
<path fill="none" stroke="#555555" d="M451.48,-900.45C446.54,-867.01 435.73,-788.99 432,-723 424.69,-593.67 447.22,-439.39 457.34,-378.54"/>
<polygon fill="#555555" stroke="#555555" points="460.81,-379.06 459.02,-368.62 453.9,-377.9 460.81,-379.06"/>
<text text-anchor="middle" x="470" y="-713.4" font-family="Helvetica,sans-Serif" font-size="7.00">Open collab doc 0.22</text>
</g>
<!-- nc_browse_ret -->
<g id="node11" class="node">
<title>nc_browse_ret</title>
<ellipse fill="black" stroke="black" cx="827" cy="-351" rx="6.5" ry="6.5"/>
</g>
<!-- nc_browse&#45;&gt;nc_browse_ret -->
<g id="edge26" class="edge">
<title>nc_browse&#45;&gt;nc_browse_ret</title>
<path fill="none" stroke="#333333" stroke-dasharray="5,2" d="M502.65,-905.28C580.12,-883.78 729.71,-830.1 798,-723 875.14,-602.03 840.27,-411.75 829.67,-363.44"/>
<polygon fill="#333333" stroke="#333333" points="831.67,-362.76 828.3,-357.37 827.57,-363.69 831.67,-362.76"/>
<text text-anchor="middle" x="812" y="-713.4" font-family="Helvetica,sans-Serif" font-size="7.00">0.05</text>
</g>
<!-- nc_share&#45;&gt;console_teacher -->
<g id="edge16" class="edge">
<title>nc_share&#45;&gt;console_teacher</title>
<path fill="none" stroke="#555555" d="M196.07,-368.67C247.73,-423.98 416.72,-593.52 598,-652 842.19,-730.77 1172.6,-460 1233,-416.5 1248.56,-405.29 1263.29,-389.67 1274.38,-376.5"/>
<polygon fill="#555555" stroke="#555555" points="1277.16,-378.63 1280.78,-368.67 1271.74,-374.19 1277.16,-378.63"/>
<text text-anchor="middle" x="657" y="-713.4" font-family="Helvetica,sans-Serif" font-size="7.00">Back to Console from share 0.20</text>
</g>
<!-- nc_share&#45;&gt;nc_browse -->
<g id="edge15" class="edge">
<title>nc_share&#45;&gt;nc_browse</title>
<path fill="none" stroke="#555555" d="M173.36,-368.86C152.85,-423.85 95.68,-601.42 161,-723 210.57,-815.26 325.42,-871.03 395.71,-897.75"/>
<polygon fill="#555555" stroke="#555555" points="394.72,-901.12 405.32,-901.33 397.17,-894.56 394.72,-901.12"/>
<text text-anchor="middle" x="194.5" y="-713.4" font-family="Helvetica,sans-Serif" font-size="7.00">Done sharing 0.80</text>
</g>
<!-- nc_share_ret -->
<g id="node14" class="node">
<title>nc_share_ret</title>
<ellipse fill="black" stroke="black" cx="180" cy="-29" rx="6.5" ry="6.5"/>
</g>
<!-- nc_share&#45;&gt;nc_share_ret -->
<g id="edge29" class="edge">
<title>nc_share&#45;&gt;nc_share_ret</title>
<path fill="none" stroke="#333333" stroke-dasharray="5,2" d="M180,-333.25C180,-276.37 180,-91.5 180,-42.18"/>
<polygon fill="#333333" stroke="#333333" points="182.1,-41.92 180,-35.92 177.9,-41.92 182.1,-41.92"/>
<text text-anchor="middle" x="188" y="-163.4" font-family="Helvetica,sans-Serif" font-size="7.00">0.05</text>
</g>
<!-- nc_drop&#45;&gt;console_learner -->
<g id="edge18" class="edge">
<title>nc_drop&#45;&gt;console_learner</title>
<path fill="none" stroke="#555555" d="M354.22,-368.88C400.03,-424.82 550.75,-596.01 721.5,-652 876.14,-702.71 995.88,-461.02 1031.86,-378.1"/>
<polygon fill="#555555" stroke="#555555" points="1035.12,-379.37 1035.83,-368.8 1028.68,-376.62 1035.12,-379.37"/>
<text text-anchor="middle" x="759" y="-713.4" font-family="Helvetica,sans-Serif" font-size="7.00">Leave File Drop 0.15</text>
</g>
<!-- nc_drop&#45;&gt;nc_browse -->
<g id="edge17" class="edge">
<title>nc_drop&#45;&gt;nc_browse</title>
<path fill="none" stroke="#555555" d="M338.85,-368.61C335.64,-421.43 328.96,-589.83 363,-723 379.37,-787.02 416.83,-855.6 438.24,-891.59"/>
<polygon fill="#555555" stroke="#555555" points="435.41,-893.67 443.56,-900.43 441.4,-890.06 435.41,-893.67"/>
<text text-anchor="middle" x="394.5" y="-713.4" font-family="Helvetica,sans-Serif" font-size="7.00">After upload 0.85</text>
</g>
<!-- nc_drop_ret -->
<g id="node13" class="node">
<title>nc_drop_ret</title>
<ellipse fill="black" stroke="black" cx="340" cy="-29" rx="6.5" ry="6.5"/>
</g>
<!-- nc_drop&#45;&gt;nc_drop_ret -->
<g id="edge28" class="edge">
<title>nc_drop&#45;&gt;nc_drop_ret</title>
<path fill="none" stroke="#333333" stroke-dasharray="5,2" d="M340,-333.25C340,-276.37 340,-91.5 340,-42.18"/>
<polygon fill="#333333" stroke="#333333" points="342.1,-41.92 340,-35.92 337.9,-41.92 342.1,-41.92"/>
<text text-anchor="middle" x="348" y="-163.4" font-family="Helvetica,sans-Serif" font-size="7.00">0.05</text>
</g>
<!-- nc_collab&#45;&gt;nc_browse -->
<g id="edge19" class="edge">
<title>nc_collab&#45;&gt;nc_browse</title>
<path fill="none" stroke="#555555" d="M467.36,-368.66C483.5,-420.93 529.33,-586.35 510,-723 501.27,-784.71 477.66,-854.27 464.04,-891.02"/>
<polygon fill="#555555" stroke="#555555" points="460.73,-889.89 460.49,-900.48 467.28,-892.35 460.73,-889.89"/>
<text text-anchor="middle" x="539" y="-713.4" font-family="Helvetica,sans-Serif" font-size="7.00">Close doc 0.70</text>
</g>
<!-- nc_collab&#45;&gt;nc_collab -->
<g id="edge20" class="edge">
<title>nc_collab&#45;&gt;nc_collab</title>
<path fill="none" stroke="#555555" d="M474.29,-368.63C499.97,-396.48 535.5,-390.6 535.5,-351 535.5,-315.11 506.32,-306.92 481.73,-326.43"/>
<polygon fill="#555555" stroke="#555555" points="479.22,-323.99 474.29,-333.37 483.99,-329.11 479.22,-323.99"/>
<text text-anchor="middle" x="567.5" y="-349.4" font-family="Helvetica,sans-Serif" font-size="7.00">Keep editing 0.30</text>
</g>
<!-- nc_collab_ret -->
<g id="node12" class="node">
<title>nc_collab_ret</title>
<ellipse fill="black" stroke="black" cx="462" cy="-29" rx="6.5" ry="6.5"/>
</g>
<!-- nc_collab&#45;&gt;nc_collab_ret -->
<g id="edge27" class="edge">
<title>nc_collab&#45;&gt;nc_collab_ret</title>
<path fill="none" stroke="#333333" stroke-dasharray="5,2" d="M462,-333.25C462,-276.37 462,-91.5 462,-42.18"/>
<polygon fill="#333333" stroke="#333333" points="464.1,-41.92 462,-35.92 459.9,-41.92 464.1,-41.92"/>
<text text-anchor="middle" x="470" y="-163.4" font-family="Helvetica,sans-Serif" font-size="7.00">0.05</text>
</g>
<!-- wiki_browse&#45;&gt;console_teacher -->
<g id="edge23" class="edge">
<title>wiki_browse&#45;&gt;console_teacher</title>
<path fill="none" stroke="#555555" d="M1935.42,-900.29C1975.35,-863.88 2059.47,-775.16 2017,-707 1866.08,-464.76 1496.24,-383.13 1352.49,-359.99"/>
<polygon fill="#555555" stroke="#555555" points="1352.96,-356.52 1342.53,-358.42 1351.87,-363.43 1352.96,-356.52"/>
<text text-anchor="middle" x="2082" y="-713.4" font-family="Helvetica,sans-Serif" font-size="7.00">Leave Wikipedia as teacher 0.15</text>
</g>
<!-- wiki_browse&#45;&gt;console_learner -->
<g id="edge22" class="edge">
<title>wiki_browse&#45;&gt;console_learner</title>
<path fill="none" stroke="#555555" d="M1904.55,-900.42C1877.58,-862.32 1806.49,-767.19 1729,-707 1517.62,-542.81 1218.85,-418.85 1097.45,-372.2"/>
<polygon fill="#555555" stroke="#555555" points="1098.57,-368.88 1087.98,-368.58 1096.07,-375.42 1098.57,-368.88"/>
<text text-anchor="middle" x="1805.5" y="-713.4" font-family="Helvetica,sans-Serif" font-size="7.00">Leave Wikipedia as learner 0.20</text>
</g>
<!-- wiki_browse&#45;&gt;wiki_browse -->
<g id="edge21" class="edge">
<title>wiki_browse&#45;&gt;wiki_browse</title>
<path fill="none" stroke="#555555" d="M1927.23,-935.88C1952.98,-967.56 1989.5,-961.6 1989.5,-918 1989.5,-878.15 1958.99,-869.75 1934.08,-892.79"/>
<polygon fill="#555555" stroke="#555555" points="1931.5,-890.42 1927.23,-900.12 1936.62,-895.2 1931.5,-890.42"/>
<text text-anchor="middle" x="2046.5" y="-916.4" font-family="Helvetica,sans-Serif" font-size="7.00">Search / browse Wikipedia 0.65</text>
</g>
<!-- wiki_browse_ret -->
<g id="node15" class="node">
<title>wiki_browse_ret</title>
<ellipse fill="black" stroke="black" cx="2209" cy="-351" rx="6.5" ry="6.5"/>
</g>
<!-- wiki_browse&#45;&gt;wiki_browse_ret -->
<g id="edge30" class="edge">
<title>wiki_browse&#45;&gt;wiki_browse_ret</title>
<path fill="none" stroke="#333333" stroke-dasharray="5,2" d="M1956.81,-900.42C2017.48,-873.36 2129.69,-813.47 2180,-723 2249.43,-598.15 2220.55,-412.18 2211.4,-363.83"/>
<polygon fill="#333333" stroke="#333333" points="2213.42,-363.2 2210.2,-357.72 2209.29,-364.01 2213.42,-363.2"/>
<text text-anchor="middle" x="2192" y="-713.4" font-family="Helvetica,sans-Serif" font-size="7.00">0.05</text>
</g>
</g>
</svg>
